<?xml version="1.0" encoding="UTF-8"?>
<svg version="1.1" xmlns="http://www.w3.org/2000/svg" width="1117" height="370">
<path d="M0 0 C368.61 0 737.22 0 1117 0 C1117 122.1 1117 244.2 1117 370 C748.39 370 379.78 370 0 370 C0 247.9 0 125.8 0 0 Z " fill="#FEFEFE" transform="translate(0,0)"/>
<path d="M0 0 C0.87527344 -0.00386719 1.75054687 -0.00773437 2.65234375 -0.01171875 C3.48378906 -0.01042969 4.31523438 -0.00914063 5.171875 -0.0078125 C5.93081055 -0.00668457 6.68974609 -0.00555664 7.47167969 -0.00439453 C9.25 0.125 9.25 0.125 10.25 1.125 C10.35856849 2.49565389 10.40576057 3.87129254 10.42578125 5.24609375 C10.5839167 20.38711272 10.5839167 20.38711272 17.25 33.625 C23.93504698 38.63878524 32.2268242 37.8864542 40.25 37.125 C44.44782171 36.18421159 47.05204821 34.8363597 49.53515625 31.2890625 C54.98463943 21.09325526 54.61348652 12.21875603 55.25 0.125 C88.58 0.125 121.91 0.125 156.25 0.125 C157.24 12.5 157.24 12.5 158.25 25.125 C163.06876301 33.51141475 163.06876301 33.51141475 170.25 37.125 C178.38387099 38.11824497 187.47525523 38.34688192 194.25 33.125 C198.18427636 28.37521537 199.31787534 23.1803486 199.53125 17.17578125 C199.56863281 16.24572266 199.60601562 15.31566406 199.64453125 14.35742188 C199.71526649 12.39910377 199.78557397 10.44077016 199.85546875 8.48242188 C199.89285156 7.55623047 199.93023437 6.63003906 199.96875 5.67578125 C199.99904297 4.82669189 200.02933594 3.97760254 200.06054688 3.1027832 C200.25 1.125 200.25 1.125 201.25 0.125 C215.94938144 -0.86360228 230.58256742 0.03801646 242.25 10.125 C247.13759772 14.81787271 250.72537824 19.83139314 253.25 26.125 C253.59176144 26.97332807 253.93352287 27.82165613 254.28564072 28.69569111 C255.47258129 32.91650997 255.52759473 36.68878248 255.50396729 41.04862976 C255.50708727 41.9362095 255.51020725 42.82378924 255.51342177 43.73826534 C255.52138659 46.70668168 255.51508388 49.67489274 255.50878906 52.64331055 C255.51149969 54.77410502 255.51506103 56.90489855 255.51940918 59.03569031 C255.52852962 64.82103641 255.52498957 70.60631119 255.51865101 76.39165854 C255.51358598 82.45103379 255.51828417 88.51040295 255.52142334 94.56977844 C255.5250629 104.7508758 255.52026559 114.93194415 255.51074219 125.11303711 C255.49987228 136.8690657 255.50337263 148.62502483 255.514395 160.38105172 C255.5234856 170.48232862 255.52474404 180.58358467 255.51951766 190.68486434 C255.51640583 196.71413771 255.51596668 202.74337851 255.52259064 208.77264977 C255.52838872 214.44681974 255.5243222 220.1209007 255.51280212 225.79506111 C255.51016806 227.87225573 255.51089909 229.9494579 255.51532745 232.02664948 C255.54829804 249.06998411 255.4708046 266.85925397 242.890625 280.015625 C232.24804879 288.5170912 221.18669283 291.27888818 207.78178406 291.26544189 C206.84772525 291.26841302 205.91366645 291.27138414 204.95130283 291.2744453 C201.83170248 291.28309414 198.71214067 291.28463729 195.5925293 291.28613281 C193.35159219 291.29076361 191.11065587 291.29578862 188.86972046 291.30117798 C182.78907924 291.31427694 176.70844905 291.32074181 170.62779593 291.32518864 C166.82705077 291.32812281 163.02630861 291.33222823 159.22556496 291.33669281 C148.69021991 291.34879544 138.15487664 291.3591801 127.61952496 291.3625679 C126.94620345 291.36278747 126.27288194 291.36300703 125.57915675 291.36323325 C124.90428495 291.36345153 124.22941315 291.36366981 123.5340907 291.3638947 C122.16668872 291.36433816 120.79928674 291.36478472 119.43188477 291.36523438 C118.7536156 291.3654558 118.07534643 291.36567723 117.37652365 291.36590537 C106.38736545 291.36985303 95.39827356 291.3873092 84.40914097 291.4105939 C73.11100602 291.43433906 61.81290316 291.44651343 50.51473933 291.44793582 C44.17752395 291.44898314 37.84040223 291.45487599 31.50321007 291.47275543 C25.54174152 291.48924852 19.58043696 291.4913855 13.6189537 291.48261642 C11.43490344 291.48184678 9.25084431 291.48617918 7.06681633 291.49607468 C4.07740589 291.50882171 1.08857391 291.50290227 -1.90083313 291.49249268 C-2.75795704 291.50054908 -3.61508094 291.50860548 -4.4981783 291.51690602 C-16.06482932 291.42318507 -25.20882503 287.34332728 -33.5703125 279.39453125 C-41.5202315 270.66560008 -45.225945 259.43102574 -45.13095093 247.77813721 C-45.1356309 246.88123822 -45.14031087 245.98433923 -45.14513266 245.06026149 C-45.15702447 242.07810635 -45.1476481 239.09641573 -45.13818359 236.11425781 C-45.14225199 233.9665602 -45.14759537 231.81886467 -45.15411377 229.6711731 C-45.16776449 223.8527845 -45.16249703 218.0345559 -45.15297651 212.21616459 C-45.14536441 206.11503236 -45.1524302 200.01391355 -45.15713501 193.91278076 C-45.16258969 183.66383413 -45.15541018 173.4149524 -45.14111328 163.16601562 C-45.1248048 151.33893026 -45.1300634 139.51200021 -45.1465925 127.68491864 C-45.16023634 117.51305482 -45.16211234 107.34123758 -45.15427649 97.16936755 C-45.14961366 91.10205465 -45.14893643 85.03481456 -45.15888596 78.96750641 C-45.16759491 73.25795659 -45.16146217 67.5486055 -45.14420319 61.839077 C-45.14025852 59.75143386 -45.14133747 57.66377381 -45.14799118 55.57613754 C-45.23495645 25.50171146 -45.23495645 25.50171146 -35.75 13.125 C-25.33201774 3.3949977 -13.893968 -0.06249161 0 0 Z " fill="#1F9E3F" transform="translate(71.75,47.875)"/>
<path d="M0 0 C2.77714757 2.27525343 4.84561824 4.23884674 5.296875 7.87109375 C5.49145114 13.82102744 4.62136643 17.13856733 1.05859375 21.953125 C-2.86800762 25.64175053 -7.1963353 25.30892191 -12.3203125 25.3515625 C-15.35630992 24.8900547 -16.53672639 23.77836393 -18.94140625 21.953125 C-22.08661205 21.60426335 -24.92227341 22.01931351 -27.94140625 22.953125 C-32.77889176 28.24412478 -32.2881862 36.53118996 -32.21875 43.3359375 C-31.72345573 49.79569093 -29.93734501 55.81796773 -27.94140625 61.953125 C-27.72709961 62.62843262 -27.51279297 63.30374023 -27.29199219 63.99951172 C-22.71259007 78.16099614 -15.67033704 90.30442956 -2.53125 98.1171875 C3.22974886 100.90835878 9.22377447 100.49681937 15.49609375 100.390625 C16.67236328 100.39771484 17.84863281 100.40480469 19.06054688 100.41210938 C27.57487699 100.35023889 35.05096106 99.27980878 42.30859375 94.578125 C42.911875 94.19914062 43.51515625 93.82015625 44.13671875 93.4296875 C49.13348117 89.59071149 52.46683788 85.18536408 55.62109375 79.828125 C56.01240479 79.16651367 56.40371582 78.50490234 56.80688477 77.82324219 C64.05664843 65.27014355 66.41830791 52.4690015 66.37109375 38.078125 C66.38720703 37.07265625 66.40332031 36.0671875 66.41992188 35.03125 C66.54836774 27.9201318 66.54836774 27.9201318 63.05859375 21.953125 C57.55814148 21.24063841 57.55814148 21.24063841 52.671875 23.453125 C48.08492406 26.0859937 43.18641768 25.70946168 38.05859375 24.953125 C34.35730579 23.10601953 32.34102472 20.37677145 30.05859375 16.953125 C29.37768912 11.83842275 29.21157172 7.38430015 31.87109375 2.890625 C37.07404983 -1.71770753 41.65264598 -1.83587599 48.37109375 -1.62109375 C58.73611049 -0.74781029 71.32739161 4.66943488 78.68359375 12.09375 C86.90786618 23.21520931 86.40469768 38.33169583 84.4921875 51.44140625 C83.82835464 55.31581769 82.96493743 59.12869351 82.05859375 62.953125 C81.76855469 64.37431641 81.76855469 64.37431641 81.47265625 65.82421875 C77.68871871 82.3605172 67.01467663 100.22615814 53.05859375 109.953125 C50.48466481 111.53702695 47.85979601 112.98723146 45.18359375 114.390625 C44.54800537 114.73319336 43.91241699 115.07576172 43.25756836 115.42871094 C37.66512342 118.18871017 32.24056552 118.68053748 26.05859375 118.953125 C26.45016592 122.78944961 26.87638632 126.62118288 27.30859375 130.453125 C27.47294922 132.06960937 27.47294922 132.06960937 27.640625 133.71875 C28.96389386 145.14064966 33.11611236 153.44298912 42.05859375 160.953125 C51.82357451 166.01473633 61.00302926 167.16727338 71.80859375 167.265625 C72.8553125 167.29462891 73.90203125 167.32363281 74.98046875 167.35351562 C81.98688531 167.41044276 86.91555131 166.27353852 93.05859375 162.953125 C94.85296875 162.14875 94.85296875 162.14875 96.68359375 161.328125 C105.12774639 156.33216462 109.77491309 144.91442807 112.30859375 135.828125 C113.4822937 130.39783537 113.4822937 130.39783537 113.05859375 124.953125 C110.33653175 122.20789651 107.26786573 120.09263965 104.05859375 117.953125 C99.27973276 114.66102076 97.0274078 111.35066707 95.05859375 105.953125 C93.57893535 97.85487944 93.12442178 88.03432041 96.69140625 80.5078125 C102.72603146 73.4349722 112.12705459 67.5207471 121.5390625 66.75 C131.97595134 66.56927465 138.89285141 68.86666619 146.8828125 75.73828125 C152.41173451 81.36646577 153.2866409 86.68785435 153.49609375 94.453125 C153.12909395 105.27961897 150.81016576 110.76029713 143.5078125 118.7890625 C139.50727952 122.3238237 136.42417249 123.953125 131.05859375 123.953125 C131.08179688 124.71496094 131.105 125.47679687 131.12890625 126.26171875 C131.40995989 142.34200197 125.81220924 156.49836188 115.24609375 168.77734375 C102.78953957 181.16716639 88.12101995 186.3565945 70.87109375 186.328125 C61.55542842 186.30249174 53.61713438 185.91747066 45.05859375 181.953125 C44.11371094 181.52902344 43.16882813 181.10492188 42.1953125 180.66796875 C26.00268766 172.62764743 16.67666238 159.61880511 11.05859375 142.953125 C10.2716131 139.60345596 9.93876097 136.52720642 9.9609375 133.08984375 C9.96416016 132.20361328 9.96738281 131.31738281 9.97070312 130.40429688 C9.98327148 129.0362793 9.98327148 129.0362793 9.99609375 127.640625 C10.00060547 126.70927734 10.00511719 125.77792969 10.00976562 124.81835938 C10.02150141 122.52988127 10.03792012 120.24153692 10.05859375 117.953125 C8.96212524 118.01560425 8.96212524 118.01560425 7.84350586 118.0793457 C-5.87993023 118.73333406 -16.85083109 112.21778728 -26.81640625 103.26953125 C-28.36918205 101.57751197 -29.65188815 99.85461779 -30.94140625 97.953125 C-31.56273438 97.05335938 -32.1840625 96.15359375 -32.82421875 95.2265625 C-46.18585007 74.75227572 -54.23633781 48.17364485 -49.28125 23.69140625 C-46.47288504 15.75260833 -40.56507106 9.23750934 -33.31640625 5.046875 C-24.8584415 1.15175965 -9.03861046 -4.87393884 0 0 Z " fill="#F6F9F5" transform="translate(130.94140625,121.046875)"/>
<path d="M0 0 C49 0 49 0 59.5 9.1875 C68.38542943 19.18360811 71.58477394 28.99964434 71.5 42.3125 C71.49645508 43.31853271 71.49291016 44.32456543 71.48925781 45.36108398 C71.30851878 53.48713702 69.9483248 59.80146 66 67 C65.401875 68.11375 64.80375 69.2275 64.1875 70.375 C56.39055871 79.73132955 47.72087678 84.06978081 36 87 C24.12 87 12.24 87 0 87 C0 58.29 0 29.58 0 0 Z " fill="#09572C" transform="translate(377,134)"/>
<path d="M0 0 C6.94906523 4.83825702 12.41920852 10.83726936 15 19 C16.26293254 27.66161236 15.98266372 37.09501595 12 45 C11.5978125 45.84046875 11.195625 46.6809375 10.78125 47.546875 C7.19614006 54.27891477 2.46427213 59.22246569 -4.9453125 61.6328125 C-14.64384743 63.36601076 -21.03178519 61.31214321 -29 56 C-29.02505615 56.64960693 -29.0501123 57.29921387 -29.07592773 57.96850586 C-29.19313851 60.95831088 -29.31528919 63.94789535 -29.4375 66.9375 C-29.47681641 67.95908203 -29.51613281 68.98066406 -29.55664062 70.03320312 C-29.80720001 76.06590209 -30.25643055 82.007705 -31 88 C-35.62 88 -40.24 88 -45 88 C-45 58.3 -45 28.6 -45 -2 C-40.38 -2 -35.76 -2 -31 -2 C-30.34 -0.35 -29.68 1.3 -29 3 C-28.319375 2.38125 -27.63875 1.7625 -26.9375 1.125 C-19.08877892 -4.55279823 -8.36011427 -4.74060119 0 0 Z " fill="#0C552C" transform="translate(780,161)"/>
<path d="M0 0 C8.55207488 3.54563635 13.84240757 9.24393022 18.41796875 17.2265625 C19.6715586 21.44060747 19.60138875 25.73595924 19.60546875 30.1015625 C19.61771484 30.78347656 19.62996094 31.46539062 19.64257812 32.16796875 C19.66842109 41.21300665 16.63646675 50.58109102 10.48828125 57.3515625 C4.43881062 62.83032836 -0.49974736 64.69413978 -8.66015625 64.55078125 C-15.23075942 63.82169026 -20.35490563 61.14690671 -25.58203125 57.2265625 C-25.91203125 68.1165625 -26.24203125 79.0065625 -26.58203125 90.2265625 C-31.20203125 90.2265625 -35.82203125 90.2265625 -40.58203125 90.2265625 C-40.58203125 60.8565625 -40.58203125 31.4865625 -40.58203125 1.2265625 C-35.96203125 1.2265625 -31.34203125 1.2265625 -26.58203125 1.2265625 C-26.25203125 2.5465625 -25.92203125 3.8665625 -25.58203125 5.2265625 C-24.9271875 4.7934375 -24.27234375 4.3603125 -23.59765625 3.9140625 C-15.76216587 -0.86691468 -8.98849023 -2.69246757 0 0 Z " fill="#0C572D" transform="translate(704.58203125,158.7734375)"/>
<path d="M0 0 C1.58206057 0.00667536 3.16410534 0.0186375 4.74609375 0.03515625 C5.55240234 0.03966797 6.35871094 0.04417969 7.18945312 0.04882812 C9.18753131 0.06065107 11.18557158 0.07858711 13.18359375 0.09765625 C17.81723458 10.8005011 21.83001995 21.72379302 25.87109375 32.66015625 C26.93719435 35.54168737 28.00358532 38.42311084 29.07009888 41.30448914 C29.77604594 43.21185175 30.4816757 45.11933182 31.1869812 47.02693176 C33.24886959 52.59741644 35.33700661 58.15694596 37.453125 63.70703125 C37.92711558 64.95749618 38.40084152 66.20806147 38.87426758 67.45874023 C39.72184328 69.69297066 40.57668474 71.9244639 41.44018555 74.15258789 C41.80926025 75.13090576 42.17833496 76.10922363 42.55859375 77.1171875 C42.87570312 77.94323486 43.1928125 78.76928223 43.51953125 79.62036133 C44.18359375 82.09765625 44.18359375 82.09765625 44.18359375 88.09765625 C38.90359375 88.09765625 33.62359375 88.09765625 28.18359375 88.09765625 C27.19748224 85.5584945 26.21958499 83.01665395 25.24609375 80.47265625 C24.96830078 79.75980469 24.69050781 79.04695313 24.40429688 78.3125 C24.13681641 77.60996094 23.86933594 76.90742188 23.59375 76.18359375 C23.34761963 75.54470215 23.10148926 74.90581055 22.84790039 74.24755859 C22.02933913 71.59844046 21.63942294 68.83263142 21.18359375 66.09765625 C10.29359375 66.09765625 -0.59640625 66.09765625 -11.81640625 66.09765625 C-12.80640625 71.04765625 -12.80640625 71.04765625 -13.81640625 76.09765625 C-14.310849 78.12510812 -14.82589509 80.14789052 -15.37890625 82.16015625 C-15.62769531 83.07925781 -15.87648438 83.99835938 -16.1328125 84.9453125 C-16.81640625 87.09765625 -16.81640625 87.09765625 -17.81640625 88.09765625 C-20.67908192 88.17090793 -23.51712525 88.1900383 -26.37890625 88.16015625 C-27.18521484 88.15564453 -27.99152344 88.15113281 -28.82226562 88.14648438 C-30.82034381 88.13466143 -32.81838408 88.11672539 -34.81640625 88.09765625 C-34.25297565 83.40560112 -33.33405676 79.19709871 -31.77734375 74.73828125 C-31.36500488 73.54895996 -30.95266602 72.35963867 -30.52783203 71.13427734 C-30.08262133 69.87197697 -29.63714076 68.60977175 -29.19140625 67.34765625 C-28.73645153 66.04521203 -28.28186451 64.74263932 -27.82763672 63.43994141 C-24.49010085 53.89540013 -21.04186769 44.39308372 -17.49658203 34.92382812 C-16.60504887 32.53019279 -15.74130571 30.12692141 -14.87890625 27.72265625 C-12.84510061 22.12077054 -10.73802363 16.54652005 -8.62890625 10.97265625 C-8.27127197 10.02213379 -7.9136377 9.07161133 -7.54516602 8.09228516 C-7.0394104 6.76076416 -7.0394104 6.76076416 -6.5234375 5.40234375 C-6.21897705 4.59780762 -5.9145166 3.79327148 -5.60083008 2.96435547 C-4.18766521 -0.39856347 -4.08471391 0.10452185 0 0 Z " fill="#0D582E" transform="translate(611.81640625,132.90234375)"/>
<path d="M0 0 C6.56086416 5.30452847 12.9362971 11.66274488 14.23461914 20.36694336 C14.37496134 22.48412726 14.40521835 24.56597963 14.375 26.6875 C14.36742676 27.43370605 14.35985352 28.17991211 14.35205078 28.94873047 C14.09395972 37.63151645 11.5701383 44.47631851 5.55859375 50.84765625 C-1.10162166 57.12270258 -8.44079666 60.38332038 -17.6875 60.75 C-25.77581667 60.4094393 -32.98331817 56.58893784 -39.0625 51.375 C-44.00621339 45.30340317 -47.41005008 39.21858278 -48.0625 31.375 C-48.16304688 30.50746094 -48.26359375 29.63992187 -48.3671875 28.74609375 C-48.97146124 19.66990221 -46.01045464 12.75484161 -41.0625 5.375 C-38.61577412 2.83434991 -36.1528615 1.05262481 -33.0625 -0.625 C-32.010625 -1.223125 -30.95875 -1.82125 -29.875 -2.4375 C-19.74401288 -6.7150279 -9.47755421 -5.02890632 0 0 Z " fill="#0D582E" transform="translate(503.0625,162.625)"/>
<path d="M0 0 C5.62396943 4.78769144 11.80251889 10.72157128 12.96948242 18.34741211 C13.10355772 20.58685267 13.13180644 22.79581309 13.1015625 25.0390625 C13.09253906 25.83489746 13.08351563 26.63073242 13.07421875 27.45068359 C12.81814718 36.20868685 11.06773694 43.13651352 5.0390625 49.7265625 C-2.26758226 56.37765782 -10.87119531 59.81467403 -20.734375 59.69921875 C-29.23700794 58.56298101 -37.30072292 54.31441261 -42.6953125 47.6796875 C-48.25720024 39.76217671 -50.76807326 28.93585565 -49.3359375 19.3515625 C-46.45516133 10.23649124 -41.00320257 2.01926909 -32.50390625 -2.65625 C-21.67006872 -7.51849517 -9.84081305 -6.94452025 0 0 Z " fill="#0D572E" transform="translate(851.3359375,163.6484375)"/>
<path d="M0 0 C26.61174636 0 26.61174636 0 34.20703125 7.06640625 C36.8040644 9.86712827 38.34039471 12.55312748 40 16 C40.35578125 16.73605469 40.7115625 17.47210938 41.078125 18.23046875 C42.24362265 21.73190026 42.38320166 25.03516944 42.375 28.6875 C42.37367065 29.74771362 42.37367065 29.74771362 42.37231445 30.8293457 C42.23739631 36.83080607 40.91828779 41.71975352 38 47 C37.5565625 47.84820312 37.113125 48.69640625 36.65625 49.5703125 C34.79088852 52.3067626 33.15700447 53.52187964 30.3125 55.1875 C29.10013672 55.92033203 29.10013672 55.92033203 27.86328125 56.66796875 C18.3210063 61.10714441 10.88359276 60 0 60 C0 40.2 0 20.4 0 0 Z " fill="#F6F8F6" transform="translate(391,147)"/>
<path d="M0 0 C4.66492888 3.65081391 8.50638935 8.49732257 9.34924316 14.47824097 C9.46131368 17.38819301 9.4499145 20.27208907 9.390625 23.18359375 C9.38496521 24.23909927 9.37930542 25.2946048 9.37347412 26.38209534 C9.35118595 29.73436939 9.30100215 33.08555212 9.25 36.4375 C9.2299253 38.71808346 9.21167623 40.99868377 9.1953125 43.27929688 C9.15134568 48.85328141 9.08236921 54.42645603 9 60 C4.38 60 -0.24 60 -5 60 C-5.01458252 58.84999512 -5.02916504 57.69999023 -5.04418945 56.51513672 C-5.10233762 52.23211195 -5.17956924 47.94960384 -5.26245117 43.66699219 C-5.29562296 41.81649181 -5.32367887 39.96589214 -5.34643555 38.11523438 C-5.3801245 35.44878997 -5.4324466 32.7832491 -5.48828125 30.1171875 C-5.49467117 29.29507782 -5.5010611 28.47296814 -5.50764465 27.62594604 C-5.63256971 22.70095594 -6.30989147 19.28070648 -9 15 C-12.60371457 11.82025185 -16.12357361 11.42660334 -20.77734375 11.57421875 C-24.62277425 12.31086537 -26.35774131 14.1595719 -29 17 C-29.86957606 19.60872818 -30.16999543 21.32590349 -30.29711914 24.01245117 C-30.33708511 24.81305466 -30.37705109 25.61365814 -30.41822815 26.43852234 C-30.45681442 27.29798965 -30.4954007 28.15745697 -30.53515625 29.04296875 C-30.57813339 29.9265657 -30.62111053 30.81016266 -30.66539001 31.72053528 C-30.80173957 34.5426827 -30.9321896 37.36506791 -31.0625 40.1875 C-31.15390847 42.10093005 -31.24570064 44.01434182 -31.33789062 45.92773438 C-31.56304659 50.61828897 -31.78291195 55.30906536 -32 60 C-36.62 60 -41.24 60 -46 60 C-46 39.87 -46 19.74 -46 -1 C-41.38 -1 -36.76 -1 -32 -1 C-31.67 0.32 -31.34 1.64 -31 3 C-30.46890625 2.65066406 -29.9378125 2.30132812 -29.390625 1.94140625 C-28.68421875 1.48636719 -27.9778125 1.03132812 -27.25 0.5625 C-26.55390625 0.11003906 -25.8578125 -0.34242188 -25.140625 -0.80859375 C-17.44071257 -5.09412895 -7.73306892 -3.37813011 0 0 Z " fill="#094E26" transform="translate(951,161)"/>
<path d="M0 0 C14.02393792 -1.2121531 14.02393792 -1.2121531 18.4453125 1.5 C20.25063635 3.5724794 21.63186965 5.61784362 23 8 C23.75023437 9.1446875 23.75023437 9.1446875 24.515625 10.3125 C25.73111403 12.18248313 26.88543741 14.06877634 28 16 C29.0842148 14.45895312 30.16732521 12.91712922 31.25 11.375 C31.85328125 10.51648438 32.4565625 9.65796875 33.078125 8.7734375 C35.09762677 5.99182732 35.09762677 5.99182732 36.6875 2.6875 C39 0 39 0 40.90917969 -0.47412109 C43.21806176 -0.59146108 45.44323447 -0.52419379 47.75 -0.375 C48.93916016 -0.33439453 48.93916016 -0.33439453 50.15234375 -0.29296875 C52.10273366 -0.22247273 54.05171901 -0.11485499 56 0 C52.49452624 7.11069678 48.49140172 13.31946786 43.34033203 19.3190918 C40.19074627 23.15070316 38.95623283 26.02695533 39 31 C40.15649216 33.64298594 41.24560805 35.69551999 42.8125 38.0625 C43.2139624 38.70082764 43.6154248 39.33915527 44.02905273 39.99682617 C47.44017565 45.34440015 51.11116632 50.52152747 54.8996582 55.60766602 C58 59.79913108 58 59.79913108 58 62 C55.20268195 63.39865903 52.80715441 63.24537267 49.6875 63.3125 C48.55699219 63.34988281 47.42648437 63.38726562 46.26171875 63.42578125 C42.1935142 62.89472221 40.83816238 61.94552708 38 59 C36.27553371 56.50238803 34.78424491 53.90265096 33.3125 51.25 C31.93197861 48.78103447 30.51491296 46.3929077 29 44 C28.34 44 27.68 44 27 44 C26.45730469 45.04800781 25.91460938 46.09601563 25.35546875 47.17578125 C24.63310441 48.55484044 23.91043199 49.93373829 23.1875 51.3125 C22.83107422 52.00279297 22.47464844 52.69308594 22.10742188 53.40429688 C21.58051758 54.40493164 21.58051758 54.40493164 21.04296875 55.42578125 C20.72352295 56.03848877 20.40407715 56.65119629 20.07495117 57.2824707 C18.09634075 60.44384348 16.57023069 61.8099231 13 63 C10.98170839 63.11904875 8.95926229 63.17521712 6.9375 63.1875 C5.87402344 63.20167969 4.81054688 63.21585938 3.71484375 63.23046875 C1 63 1 63 -1 61 C9.26735345 43.14373314 9.26735345 43.14373314 13.84375 37.54296875 C16.02872399 34.62720955 17.02989004 32.90292817 16.90625 29.16796875 C15.80357892 25.31337286 13.86902803 22.47731608 11.5 19.3125 C7.10726112 13.32178335 7.10726112 13.32178335 6 10 C5.34 10 4.68 10 4 10 C1.1605948 6.32547562 0 4.73113419 0 0 Z " fill="#0A562C" transform="translate(1045,159)"/>
<path d="M0 0 C4.12402142 2.3999322 7.27060097 4.6019852 9.5 8.875 C9.7475 9.926875 9.7475 9.926875 10 11 C3.96521739 17 3.96521739 17 0.125 17 C-2 16 -2 16 -3 14 C-7.84263721 11.87396415 -11.80713598 11.58786794 -17 12 C-21.61434053 13.88768476 -23.65808953 16.66186647 -26 21 C-26.4943415 24.20642342 -26.42511914 27.32657666 -26.3125 30.5625 C-26.30283203 31.39974609 -26.29316406 32.23699219 -26.28320312 33.09960938 C-26.20897963 37.17544724 -25.99953254 41.02624869 -25 45 C-19.34793519 46.96593559 -13.98097994 47.82768091 -8 47 C-4.76060344 45.26460898 -2.57678866 43.57678866 0 41 C3.3 43.31 6.6 45.62 10 48 C8.77530623 54.12346883 6.96539759 55.62508132 2 59 C-5.3570492 63.40109193 -14.36626457 62.79144622 -22.5859375 61.63671875 C-31.47544118 59.34416254 -37.43563034 51.49321415 -42.125 44.01953125 C-45.70514559 35.75642737 -45.14754114 24.35651239 -42.3125 16 C-38.31327486 6.54854404 -31.57220467 2.00589206 -22.48046875 -2.15234375 C-15.12632036 -4.66549367 -6.96286787 -3.03916708 0 0 Z " fill="#0D572D" transform="translate(567,161)"/>
<path d="M0 0 C4.62 0 9.24 0 14 0 C14 6.27 14 12.54 14 19 C18.95 19 23.9 19 29 19 C29 22.96 29 26.92 29 31 C24.05 31 19.1 31 14 31 C14.66 42.22 15.32 53.44 16 65 C19.96 65.33 23.92 65.66 28 66 C31 75.5 31 75.5 31 80 C24.9470477 83.12410441 18.63835004 82.68641601 12.25 80.8125 C6.68622635 78.75758709 3.24388312 74.86582468 0 70 C-1.25282725 66.24151826 -1.12381835 62.74509081 -1.09765625 58.83203125 C-1.0962413 58.03721848 -1.09482635 57.2424057 -1.09336853 56.42350769 C-1.08777378 53.88646675 -1.07522228 51.34951425 -1.0625 48.8125 C-1.05748432 47.09179815 -1.05292153 45.37109492 -1.04882812 43.65039062 C-1.03780607 39.4335597 -1.02054506 35.21679484 -1 31 C-3.97 31 -6.94 31 -10 31 C-10 27.37 -10 23.74 -10 20 C-6.7 20 -3.4 20 0 20 C0 13.4 0 6.8 0 0 Z " fill="#0F5930" transform="translate(979,141)"/>
<path d="M0 0 C1.39605469 -0.10828125 1.39605469 -0.10828125 2.8203125 -0.21875 C7.48510063 0.87884721 10.15862056 3.61037841 12.875 7.5 C13.82446998 10.89033805 13.79024778 14.09444783 13.69921875 17.59765625 C13.69880081 18.55014755 13.69838287 19.50263885 13.69795227 20.48399353 C13.68960435 22.48857298 13.66424382 24.49314603 13.62280273 26.49731445 C13.5626011 29.55736111 13.56123323 32.61327331 13.56835938 35.67382812 C13.5529519 37.62763464 13.53418525 39.58141816 13.51171875 41.53515625 C13.51040451 42.44467545 13.50909027 43.35419464 13.50773621 44.29127502 C13.36368424 49.83491671 12.57932949 53.10989045 8.875 57.5 C5.9308634 59.88713778 4.22398522 60.46192889 0.4375 60.875 C-4.14255594 60.39288885 -7.26805104 58.95903133 -10.875 56.125 C-14.33444372 51.62772316 -14.43252131 46.85298839 -14.42578125 41.3828125 C-14.43006638 40.60743134 -14.4343515 39.83205017 -14.43876648 39.03317261 C-14.44449241 37.39761325 -14.44502287 35.76202844 -14.44067383 34.12646484 C-14.43751884 31.63985149 -14.46097612 29.15443481 -14.48632812 26.66796875 C-14.48860199 25.07291815 -14.48930421 23.47786439 -14.48828125 21.8828125 C-14.497491 21.14717072 -14.50670074 20.41152893 -14.51618958 19.65359497 C-14.45880048 13.16654 -12.97806115 8.52954317 -8.5 3.625 C-7.71625 2.92375 -6.9325 2.2225 -6.125 1.5 C-4.41851214 -0.20648786 -2.33598241 0.12730149 0 0 Z " fill="#229E3F" transform="translate(250.125,17.5)"/>
<path d="M0 0 C3.54652163 1.96110624 5.7577731 4.63665965 8 8 C8.26742554 9.95283508 8.26742554 9.95283508 8.29052734 12.19262695 C8.3096669 13.45457634 8.3096669 13.45457634 8.32919312 14.74201965 C8.33141876 15.64828598 8.33364441 16.55455231 8.3359375 17.48828125 C8.3425943 18.4242363 8.3492511 19.36019135 8.35610962 20.32450867 C8.36623712 22.30575597 8.37092661 24.28703739 8.37060547 26.26831055 C8.37496864 29.29077898 8.41125935 32.31177532 8.44921875 35.33398438 C8.45508898 37.26041168 8.45905699 39.18684592 8.4609375 41.11328125 C8.47530853 42.01347488 8.48967957 42.91366852 8.50448608 43.84114075 C8.46435217 49.39009742 7.74186294 52.62139686 4 57 C-0.34317784 60.13112821 -3.76000726 60.37627412 -8.8828125 59.57421875 C-12.02893309 58.72093512 -13.81051382 57.38853038 -16 55 C-18.48065451 50.38143457 -18.32258976 45.86473333 -18.3359375 40.75390625 C-18.3425943 39.86517319 -18.3492511 38.97644012 -18.35610962 38.06077576 C-18.36621119 36.18563907 -18.37092741 34.31046661 -18.37060547 32.43530273 C-18.37498026 29.57540419 -18.41132987 26.71704784 -18.44921875 23.85742188 C-18.45508722 22.03125525 -18.45905641 20.20508133 -18.4609375 18.37890625 C-18.47530853 17.52873428 -18.48967957 16.67856232 -18.50448608 15.80262756 C-18.46298763 10.37858991 -17.59161594 7.31251823 -14 3 C-9.84965813 -0.55743589 -5.25267261 -1.00799527 0 0 Z " fill="#1F9D3B" transform="translate(109,18)"/>
<path d="M0 0 C4.66880891 4.15005237 7.86911411 7.15871416 8.734375 13.61328125 C8.88789451 21.37369248 8.87472885 27.61889142 3.80859375 33.7421875 C0.69137787 36.88110094 -1.77961832 38.39466997 -6.25 38.5625 C-10.62408251 38.20543204 -13.99306391 37.38420944 -17.75 35 C-22.80530145 28.20284598 -24.95060511 20.41787899 -23.75 12 C-22.01289444 7.32029752 -19.66781253 3.87512358 -16.0625 0.4375 C-10.71538066 -1.88294802 -5.49144056 -1.99688748 0 0 Z " fill="#F6F7F6" transform="translate(700.75,172)"/>
<path d="M0 0 C4.96566101 1.45545236 8.67636544 3.61460406 11.90234375 7.640625 C14.65897078 13.5659016 13.82362192 21.098047 12.08203125 27.234375 C10.40128424 31.53029155 8.3286494 34.86115766 4.8125 37.875 C-0.3100234 39.92400936 -5.02982483 39.60620775 -10.25 38 C-14.93235915 34.59464789 -17.94214531 29.71459648 -19 24 C-19.54732369 17.71630298 -19.33419499 12.52226045 -16 7 C-11.11837997 1.29916557 -7.53067487 -1.19534522 0 0 Z " fill="#F7F9F6" transform="translate(489,171)"/>
<path d="M0 0 C5.5229931 2.84011567 8.67679154 6.20952575 11 12 C11.97942631 20.36353252 11.94372693 27.9776469 6.62890625 34.74609375 C3.15314244 38.3552202 0.38680071 39.41390214 -4.625 39.5625 C-8.83616254 39.29750208 -11.8307122 38.97720975 -15 36 C-19.68808243 28.90090374 -22.49866286 21.60439194 -21 13 C-18.62868082 7.99559265 -15.64204669 4.06119221 -11 1 C-7.22074153 -0.25975282 -3.90750818 -0.73005046 0 0 Z " fill="#F6F7F6" transform="translate(838,171)"/>
<path d="M0 0 C4.68082728 2.92033914 9.0858453 6.70000381 11 12 C11.84642875 19.90328235 12.10263769 28.45999958 7 35 C2.72977597 38.5376348 -2.26526709 39.78197144 -7.75390625 39.515625 C-11.93401463 38.55601751 -15.22714623 36.2316713 -18 33 C-21.1174057 25.90943017 -21.67655843 15.64226338 -19.01953125 8.28515625 C-14.4359993 0.71175115 -8.77383618 -1.88010775 0 0 Z " fill="#F7F9F7" transform="translate(769,171)"/>
<path d="M0 0 C4.62 0 9.24 0 14 0 C14.99 1.98 15.98 3.96 17 6 C17.66 6.33 18.32 6.66 19 7 C19 7.99 19 8.98 19 10 C22.465 9.505 22.465 9.505 26 9 C21 14 21 14 18.75 16.125 C16.18853018 18.86943195 15.87350592 21.40657499 15.70288086 25.01245117 C15.66291489 25.81305466 15.62294891 26.61365814 15.58177185 27.43852234 C15.54318558 28.29798965 15.5045993 29.15745697 15.46484375 30.04296875 C15.42186661 30.9265657 15.37888947 31.81016266 15.33460999 32.72053528 C15.19826043 35.5426827 15.0678104 38.36506791 14.9375 41.1875 C14.84609153 43.10093005 14.75429936 45.01434182 14.66210938 46.92773438 C14.43695341 51.61828897 14.21708805 56.30906536 14 61 C9.38 61 4.76 61 0 61 C0 40.87 0 20.74 0 0 Z " fill="#116237" transform="translate(905,160)"/>
<path d="M0 0 C0 20.46 0 40.92 0 62 C-4.95 62 -9.9 62 -15 62 C-15 41.87 -15 21.74 -15 1 C-10.51793698 -1.24103151 -5.01109879 0 0 0 Z " fill="#064F26" transform="translate(889,159)"/>
<path d="M0 0 C4.95 0 9.9 0 15 0 C15 20.13 15 40.26 15 61 C10.05 61 5.1 61 0 61 C0 40.87 0 20.74 0 0 Z " fill="#07572C" transform="translate(1020,160)"/>
<path d="M0 0 C5.88769298 4.53692629 7.23001332 10.58472166 9.3125 17.5 C9.67150391 18.62792969 10.03050781 19.75585938 10.40039062 20.91796875 C11.9535085 25.91752914 13 29.70393937 13 35 C5.08 35 -2.84 35 -11 35 C-7.625 22.625 -7.625 22.625 -5.95703125 17.67578125 C-5.60576172 16.62841797 -5.25449219 15.58105469 -4.89257812 14.50195312 C-4.53615234 13.44943359 -4.17972656 12.39691406 -3.8125 11.3125 C-3.44447266 10.21744141 -3.07644531 9.12238281 -2.69726562 7.99414062 C-1.80095124 5.32847837 -0.90182617 2.6638015 0 0 Z " fill="#ECF3F0" transform="translate(615,151)"/>
<path d="M0 0 C3.25 1.9375 3.25 1.9375 5 5 C5.82135778 9.46818634 5.30447131 13.08658608 3.875 17.375 C1.11421913 21.24009322 -1.54537244 22.52491079 -6.1796875 23.421875 C-9.58523541 23.72000377 -11.98318227 23.64876714 -14.91015625 21.78125 C-18.28064506 18.40279313 -19.38007721 15.57414025 -19.5 10.8125 C-19.37138915 7.4096713 -18.97909187 4.81779239 -17 2 C-11.70092848 -0.87953018 -5.86112561 -0.76097487 0 0 Z " fill="#1E9939" transform="translate(262,206)"/>
<path d="M0 0 C4.62 0 9.24 0 14 0 C14.33 1.32 14.66 2.64 15 4 C13.5625 5.75 13.5625 5.75 12 7 C12 6.34 12 5.68 12 5 C9.03 5 6.06 5 3 5 C3 32.06 3 59.12 3 87 C6.3 87 9.6 87 13 87 C13.33 87.99 13.66 88.98 14 90 C9.38 90 4.76 90 0 90 C0 60.3 0 30.6 0 0 Z " fill="#0D6236" transform="translate(735,159)"/>
<path d="M0 0 C1.18851563 0.00902344 2.37703125 0.01804688 3.6015625 0.02734375 C4.51679687 0.03894531 5.43203125 0.05054688 6.375 0.0625 C6.045 1.7125 5.715 3.3625 5.375 5.0625 C2.075 5.0625 -1.225 5.0625 -4.625 5.0625 C-4.625 22.8825 -4.625 40.7025 -4.625 59.0625 C-1.655 59.0625 1.315 59.0625 4.375 59.0625 C4.375 59.7225 4.375 60.3825 4.375 61.0625 C-2.06 61.5575 -2.06 61.5575 -8.625 62.0625 C-8.625 41.9325 -8.625 21.8025 -8.625 1.0625 C-5.74084117 -0.37957941 -3.20778472 -0.03144887 0 0 Z " fill="#377654" transform="translate(882.625,158.9375)"/>
<path d="M0 0 C2.68893681 1.77239176 3.36187621 3.05137719 5 6 C4.92187766 9.98423915 4.2189585 11.67156226 2 15 C-2.59128342 16.53042781 -6.97868947 16.75799145 -11.5 15.0625 C-13.62705006 12.13780617 -13.56199036 9.71589643 -13.37109375 6.1640625 C-13 4 -13 4 -11.5625 1.4375 C-7.71728704 -0.71957068 -4.29163095 -1.00620832 0 0 Z " fill="#0F562D" transform="translate(1032,132)"/>
<path d="M0 0 C3.5060303 0.86943897 4.94966563 2.56083702 6.9375 5.48046875 C7.5573676 9.40629689 7.52675458 11.48129794 5.5 14.91796875 C1.68106129 17.24658992 -1.70678786 17.23225537 -6.0625 16.48046875 C-9.125 14.91796875 -9.125 14.91796875 -11.0625 12.48046875 C-11.85970496 8.09584146 -11.57863309 6.23853923 -9.0625 2.54296875 C-5.72661401 0.24954713 -3.96265906 -0.27768634 0 0 Z " fill="#125A31" transform="translate(884.0625,131.51953125)"/>
<path d="M0 0 C4.95 0 9.9 0 15 0 C15 20.13 15 40.26 15 61 C10.05 61 5.1 61 0 61 C0 40.87 0 20.74 0 0 Z M1 2 C1 21.14 1 40.28 1 60 C4.96 60 8.92 60 13 60 C13 40.86 13 21.72 13 2 C9.04 2 5.08 2 1 2 Z " fill="#2C613F" transform="translate(1020,160)"/>
<path d="M0 0 C33.33 0 66.66 0 101 0 C102.125 12.375 102.125 12.375 102.0625 18.1875 C102.05347656 19.29480469 102.04445313 20.40210938 102.03515625 21.54296875 C102.02355469 22.35378906 102.01195312 23.16460937 102 24 C101.34 24.33 100.68 24.66 100 25 C100 24.34 100 23.68 100 23 C99.01 23 98.02 23 97 23 C97 16.4 97 9.8 97 3 C94.36 3 91.72 3 89 3 C89 2.67 89 2.34 89 2 C59.63 1.67 30.26 1.34 0 1 C0 0.67 0 0.34 0 0 Z " fill="#5DB771" transform="translate(127,48)"/>
<path d="M0 0 C4.62 0 9.24 0 14 0 C14.33 1.32 14.66 2.64 15 4 C13.5625 5.75 13.5625 5.75 12 7 C12 5.68 12 4.36 12 3 C8.37 3 4.74 3 1 3 C1 31.38 1 59.76 1 89 C5.29 89 9.58 89 14 89 C14 89.33 14 89.66 14 90 C9.38 90 4.76 90 0 90 C0 60.3 0 30.6 0 0 Z " fill="#447B5B" transform="translate(735,159)"/>
<path d="M0 0 C3.63 0 7.26 0 11 0 C11 0.33 11 0.66 11 1 C7.7 1 4.4 1 1 1 C1 19.81 1 38.62 1 58 C4.3 58 7.6 58 11 58 C11.33 47.44 11.66 36.88 12 26 C12.33 26 12.66 26 13 26 C13 37.22 13 48.44 13 60 C8.71 60 4.42 60 0 60 C0 40.2 0 20.4 0 0 Z " fill="#085229" transform="translate(906,161)"/>
<path d="M0 0 C1.58206057 0.00667536 3.16410534 0.0186375 4.74609375 0.03515625 C5.55240234 0.03966797 6.35871094 0.04417969 7.18945312 0.04882812 C9.18753131 0.06065107 11.18557158 0.07858711 13.18359375 0.09765625 C11.20359375 3.72765625 9.22359375 7.35765625 7.18359375 11.09765625 C6.85359375 11.09765625 6.52359375 11.09765625 6.18359375 11.09765625 C6.51359375 8.78765625 6.84359375 6.47765625 7.18359375 4.09765625 C5.41309686 4.04354938 3.64212526 4.00481506 1.87109375 3.97265625 C0.88496094 3.94945312 -0.10117188 3.92625 -1.1171875 3.90234375 C-4.04047152 3.89082986 -4.04047152 3.89082986 -6.81640625 6.09765625 C-4.51559518 0.11554747 -4.51559518 0.11554747 0 0 Z " fill="#3C6B4C" transform="translate(1087.81640625,158.90234375)"/>
<path d="M0 0 C2.25 0.5 2.25 0.5 5 2 C6.16384244 3.93249957 7.04818061 5.91969702 7.97265625 7.9765625 C9.46179198 10.90953705 11.57426148 12.8109189 14 15 C15.66666667 16.66666667 17.33333333 18.33333333 19 20 C14.38472516 20 12.13362148 18.53658553 8.9375 15.4375 C0 5.89959213 0 5.89959213 0 0 Z " fill="#1D942E" transform="translate(160,264)"/>
<path d="M0 0 C-0.27241401 4.63103815 -2.26503707 6.6804884 -5.4296875 9.765625 C-7 11 -7 11 -10 12 C-10.66 12.99 -11.32 13.98 -12 15 C-11.70234328 9.04686566 -8.86697547 5.29777911 -5 1 C-3 0 -3 0 0 0 Z " fill="#114E26" transform="translate(470,164)"/>
<path d="M0 0 C1.258125 -0.020625 2.51625 -0.04125 3.8125 -0.0625 C4.52019531 -0.07410156 5.22789062 -0.08570313 5.95703125 -0.09765625 C8 0 8 0 11 1 C11 7.27 11 13.54 11 20 C8.97831765 15.9566353 8.64072239 13.67870655 8.375 9.25 C8.26285156 7.49429688 8.26285156 7.49429688 8.1484375 5.703125 C8.09945312 4.81109375 8.05046875 3.9190625 8 3 C7.05125 2.87625 6.1025 2.7525 5.125 2.625 C2 2 2 2 0 0 Z " fill="#0D8E22" transform="translate(129,239)"/>
<path d="M0 0 C5.28 0 10.56 0 16 0 C16.33 0.66 16.66 1.32 17 2 C12.71 2 8.42 2 4 2 C4.66 4.31 5.32 6.62 6 9 C5.01 9.495 5.01 9.495 4 10 C0 4.5 0 4.5 0 0 Z " fill="#407254" transform="translate(1045,159)"/>
<path d="M0 0 C0.86625 0.3403125 0.86625 0.3403125 1.75 0.6875 C1.75 1.6775 1.75 2.6675 1.75 3.6875 C0.43 4.0175 -0.89 4.3475 -2.25 4.6875 C-1.92 7.3275 -1.59 9.9675 -1.25 12.6875 C-5.125 10.8125 -5.125 10.8125 -6.25 9.6875 C-6.5625 6.3125 -6.5625 6.3125 -6.25 2.6875 C-4.13578911 0.27125898 -3.2149628 -0.44652261 0 0 Z " fill="#0D4821" transform="translate(879.25,134.3125)"/>
<path d="M0 0 C0.99 0.33 1.98 0.66 3 1 C2.43040847 4.62613199 1.07625466 6.25517741 -1.5625 8.75 C-2.52349609 9.67039063 -2.52349609 9.67039063 -3.50390625 10.609375 C-3.99761719 11.06828125 -4.49132813 11.5271875 -5 12 C-5.68359375 10.265625 -5.68359375 10.265625 -6 8 C-4.78515625 5.859375 -4.78515625 5.859375 -3.0625 3.75 C-2.49660156 3.04359375 -1.93070313 2.3371875 -1.34765625 1.609375 C-0.90292969 1.07828125 -0.45820312 0.5471875 0 0 Z " fill="#0D471E" transform="translate(1058,198)"/>
</svg>
